<svg xmlns="http://www.w3.org/2000/svg" width="300" height="300" viewBox="0 0 300 300">
  <rect fill="#faf6f0" width="300" height="300" rx="16"/>
  <!-- Cherry leaf -->
  <path d="M150 35 Q95 55 75 115 Q55 180 95 225 Q130 260 150 250 Q170 260 205 225 Q245 180 225 115 Q205 55 150 35Z" fill="#7cb342" opacity="0.85"/>
  <line x1="150" y1="45" x2="150" y2="240" stroke="#558b2f" stroke-width="2" opacity="0.6"/>
  <line x1="150" y1="100" x2="105" y2="130" stroke="#558b2f" stroke-width="1.5" opacity="0.4"/>
  <line x1="150" y1="100" x2="195" y2="130" stroke="#558b2f" stroke-width="1.5" opacity="0.4"/>
  <line x1="150" y1="155" x2="100" y2="185" stroke="#558b2f" stroke-width="1.5" opacity="0.4"/>
  <line x1="150" y1="155" x2="200" y2="185" stroke="#558b2f" stroke-width="1.5" opacity="0.4"/>
  <!-- Powdery mildew - white/gray powdery patches -->
  <ellipse cx="125" cy="105" rx="25" ry="18" fill="white" opacity="0.55"/>
  <ellipse cx="125" cy="105" rx="20" ry="14" fill="#e0e0e0" opacity="0.4"/>
  <ellipse cx="170" cy="150" rx="30" ry="20" fill="white" opacity="0.5"/>
  <ellipse cx="170" cy="150" rx="24" ry="16" fill="#e0e0e0" opacity="0.35"/>
  <ellipse cx="130" cy="195" rx="22" ry="15" fill="white" opacity="0.5"/>
  <ellipse cx="130" cy="195" rx="17" ry="11" fill="#e0e0e0" opacity="0.35"/>
  <!-- Leaf curling hint -->
  <path d="M210 140 Q225 135 220 150" stroke="#558b2f" stroke-width="1.5" fill="none" opacity="0.4"/>
  <text x="150" y="280" text-anchor="middle" fill="#555" font-size="13" font-family="sans-serif" font-weight="600">Cherry Powdery Mildew</text>
</svg>