<svg xmlns="http://www.w3.org/2000/svg" width="300" height="300" viewBox="0 0 300 300">
  <rect fill="#f0fff0" width="300" height="300" rx="16"/>
  <!-- Healthy apple leaf - vibrant green -->
  <path d="M150 40 Q100 60 80 110 Q60 170 90 220 Q120 260 150 250 Q180 260 210 220 Q240 170 220 110 Q200 60 150 40Z" fill="#4caf50" opacity="0.9"/>
  <line x1="150" y1="50" x2="150" y2="240" stroke="#2e7d32" stroke-width="2.5" opacity="0.7"/>
  <line x1="150" y1="90" x2="108" y2="115" stroke="#388e3c" stroke-width="1.5" opacity="0.5"/>
  <line x1="150" y1="90" x2="192" y2="115" stroke="#388e3c" stroke-width="1.5" opacity="0.5"/>
  <line x1="150" y1="130" x2="100" y2="160" stroke="#388e3c" stroke-width="1.5" opacity="0.5"/>
  <line x1="150" y1="130" x2="200" y2="160" stroke="#388e3c" stroke-width="1.5" opacity="0.5"/>
  <line x1="150" y1="170" x2="110" y2="200" stroke="#388e3c" stroke-width="1.5" opacity="0.5"/>
  <line x1="150" y1="170" x2="190" y2="200" stroke="#388e3c" stroke-width="1.5" opacity="0.5"/>
  <!-- Healthy sheen -->
  <ellipse cx="130" cy="120" rx="20" ry="30" fill="white" opacity="0.1" transform="rotate(-20,130,120)"/>
  <!-- Checkmark -->
  <circle cx="240" cy="50" r="22" fill="#2e7d32" opacity="0.9"/>
  <path d="M228 50 L237 59 L254 42" stroke="white" stroke-width="3.5" fill="none" stroke-linecap="round" stroke-linejoin="round"/>
  <text x="150" y="280" text-anchor="middle" fill="#2e7d32" font-size="14" font-family="sans-serif" font-weight="600">Apple - Healthy</text>
</svg>