<svg xmlns="http://www.w3.org/2000/svg" width="300" height="300" viewBox="0 0 300 300">
  <rect fill="#f0fff0" width="300" height="300" rx="16"/>
  <!-- Healthy cherry leaf -->
  <path d="M150 35 Q95 55 75 115 Q55 180 95 225 Q130 260 150 250 Q170 260 205 225 Q245 180 225 115 Q205 55 150 35Z" fill="#4caf50" opacity="0.9"/>
  <line x1="150" y1="45" x2="150" y2="240" stroke="#2e7d32" stroke-width="2.5" opacity="0.7"/>
  <line x1="150" y1="95" x2="105" y2="120" stroke="#388e3c" stroke-width="1.5" opacity="0.5"/>
  <line x1="150" y1="95" x2="195" y2="120" stroke="#388e3c" stroke-width="1.5" opacity="0.5"/>
  <line x1="150" y1="140" x2="95" y2="170" stroke="#388e3c" stroke-width="1.5" opacity="0.5"/>
  <line x1="150" y1="140" x2="205" y2="170" stroke="#388e3c" stroke-width="1.5" opacity="0.5"/>
  <line x1="150" y1="185" x2="110" y2="210" stroke="#388e3c" stroke-width="1.5" opacity="0.5"/>
  <line x1="150" y1="185" x2="190" y2="210" stroke="#388e3c" stroke-width="1.5" opacity="0.5"/>
  <!-- Sheen -->
  <ellipse cx="128" cy="130" rx="18" ry="35" fill="white" opacity="0.1" transform="rotate(-15,128,130)"/>
  <!-- Small cherries -->
  <circle cx="75" cy="65" r="10" fill="#c62828" opacity="0.8"/>
  <circle cx="60" cy="55" r="9" fill="#d32f2f" opacity="0.75"/>
  <path d="M68 48 Q72 35 80 30" stroke="#4caf50" stroke-width="1.5" fill="none"/>
  <!-- Checkmark -->
  <circle cx="240" cy="50" r="22" fill="#2e7d32" opacity="0.9"/>
  <path d="M228 50 L237 59 L254 42" stroke="white" stroke-width="3.5" fill="none" stroke-linecap="round" stroke-linejoin="round"/>
  <text x="150" y="280" text-anchor="middle" fill="#2e7d32" font-size="14" font-family="sans-serif" font-weight="600">Cherry - Healthy</text>
</svg>