<svg xmlns="http://www.w3.org/2000/svg" width="250" height="250" viewBox="0 0 250 250">
  <rect fill="#fff5f5" width="250" height="250" rx="16"/>
  <path d="M125 55 Q100 65 90 100 Q85 135 105 160 Q115 175 125 178 Q135 175 145 160 Q165 135 160 100 Q150 65 125 55Z" fill="#e74c3c" opacity="0.85"/>
  <path d="M110 60 Q125 50 140 60" fill="#4ECC5A" opacity="0.8"/>
  <path d="M105 62 Q125 48 145 62" fill="#4ECC5A" opacity="0.6"/>
  <path d="M125 55 Q128 42 130 38" stroke="#5d4037" stroke-width="2" fill="none"/>
  <circle cx="112" cy="95" r="2" fill="#f5c6cb" opacity="0.6"/>
  <circle cx="135" cy="100" r="2" fill="#f5c6cb" opacity="0.6"/>
  <circle cx="120" cy="120" r="2" fill="#f5c6cb" opacity="0.5"/>
  <circle cx="140" cy="125" r="2" fill="#f5c6cb" opacity="0.5"/>
  <circle cx="125" cy="145" r="2" fill="#f5c6cb" opacity="0.5"/>
  <circle cx="110" cy="135" r="2" fill="#f5c6cb" opacity="0.5"/>
  <text x="125" y="215" text-anchor="middle" fill="#555" font-size="16" font-family="sans-serif" font-weight="600">Strawberry</text>
</svg>