<svg xmlns="http://www.w3.org/2000/svg" width="250" height="250" viewBox="0 0 250 250">
  <rect fill="#fffff0" width="250" height="250" rx="16"/>
  <path d="M125 60 Q100 65 90 95 Q80 130 85 155 Q90 175 110 180 Q120 182 125 178 Q130 182 140 180 Q160 175 165 155 Q170 130 160 95 Q150 65 125 60Z" fill="#f39c12" opacity="0.85"/>
  <path d="M125 60 L125 178" stroke="#d4890a" stroke-width="1.5" opacity="0.3"/>
  <path d="M108 65 Q105 120 110 178" stroke="#d4890a" stroke-width="1" opacity="0.25"/>
  <path d="M142 65 Q145 120 140 178" stroke="#d4890a" stroke-width="1" opacity="0.25"/>
  <path d="M125 60 Q128 45 135 40" stroke="#5d4037" stroke-width="2.5" fill="none"/>
  <path d="M132 42 Q140 48 136 56" fill="#4ECC5A" opacity="0.7"/>
  <text x="125" y="215" text-anchor="middle" fill="#555" font-size="16" font-family="sans-serif" font-weight="600">Squash</text>
</svg>