<svg xmlns="http://www.w3.org/2000/svg" width="250" height="250" viewBox="0 0 250 250">
  <rect fill="#fffff0" width="250" height="250" rx="16"/>
  <path d="M110 55 Q105 50 100 55 Q95 65 95 170 Q95 180 110 180 Q140 180 155 180 Q160 180 155 170 Q155 65 150 55 Q145 50 140 55Z" fill="#f1c40f" opacity="0.85"/>
  <line x1="110" y1="70" x2="110" y2="175" stroke="#d4a30a" stroke-width="1" opacity="0.5"/>
  <line x1="125" y1="60" x2="125" y2="178" stroke="#d4a30a" stroke-width="1" opacity="0.5"/>
  <line x1="140" y1="70" x2="140" y2="175" stroke="#d4a30a" stroke-width="1" opacity="0.5"/>
  <path d="M155 80 Q175 60 180 50" stroke="#4ECC5A" stroke-width="2" fill="none"/>
  <path d="M155 100 Q180 85 185 75" stroke="#4ECC5A" stroke-width="2" fill="none"/>
  <path d="M95 90 Q75 70 70 60" stroke="#4ECC5A" stroke-width="2" fill="none"/>
  <text x="125" y="215" text-anchor="middle" fill="#555" font-size="16" font-family="sans-serif" font-weight="600">Corn</text>
</svg>